<svg width="240" height="60" viewBox="0 0 240 60" fill="none" xmlns="http://www.w3.org/2000/svg">
<path d="M153.9 46.25H106.96L99.13 60H90.45L124.69 0H135.46L169.58 60H161.71L153.91 46.25H153.9ZM150.36 40L130.48 4.96L110.53 40H150.37H150.36Z" fill="#BE1622"/>
<path d="M3.19 44.3999H0V18.8999H5.59L28.97 41.2099V18.8999H32.16V44.3999H27.91L3.19 21.5599V44.3999Z" fill="#DADADA"/>
<path d="M58.74 18.3701C60.69 18.3701 62.33 18.4901 63.66 18.7301C64.99 18.9701 66.09 19.3301 66.96 19.8101C67.83 20.2901 68.49 20.9001 68.95 21.6301C69.41 22.3601 69.76 23.2201 69.97 24.2001C70.19 25.1901 70.31 26.3001 70.35 27.5401C70.39 28.7801 70.41 30.1501 70.41 31.6601C70.41 33.1701 70.39 34.5401 70.35 35.7801C70.31 37.0201 70.18 38.1301 69.97 39.1201C69.75 40.1101 69.41 40.9601 68.95 41.6901C68.49 42.4201 67.82 43.0301 66.96 43.5101C66.1 43.9901 65 44.3501 63.66 44.5901C62.33 44.8301 60.69 44.9501 58.74 44.9501H49.14C47.19 44.9501 45.55 44.8301 44.22 44.5901C42.89 44.3501 41.79 43.9901 40.92 43.5101C40.05 43.0301 39.39 42.4201 38.92 41.6901C38.45 40.9601 38.11 40.1001 37.89 39.1201C37.67 38.1401 37.55 37.0201 37.52 35.7801C37.49 34.5401 37.47 33.1701 37.47 31.6601C37.47 30.1501 37.49 28.7801 37.52 27.5401C37.55 26.3001 37.68 25.1901 37.89 24.2001C38.11 23.2201 38.45 22.3601 38.92 21.6301C39.39 20.9001 40.06 20.2901 40.92 19.8101C41.78 19.3301 42.88 18.9701 44.22 18.7301C45.55 18.4901 47.19 18.3701 49.14 18.3701H58.74ZM58.74 42.2801C60.15 42.2801 61.33 42.2401 62.3 42.1601C63.27 42.0801 64.07 41.9101 64.7 41.6501C65.33 41.4001 65.82 41.0301 66.16 40.5501C66.5 40.0701 66.75 39.4401 66.91 38.6601C67.06 37.8701 67.16 36.9101 67.18 35.7601C67.21 34.6101 67.22 33.2401 67.22 31.6501C67.22 30.0601 67.21 28.6901 67.18 27.5401C67.15 26.3901 67.06 25.4301 66.91 24.6401C66.75 23.8501 66.51 23.2201 66.16 22.7501C65.82 22.2701 65.33 21.9101 64.71 21.6501C64.08 21.4001 63.29 21.2301 62.32 21.1401C61.35 21.0601 60.16 21.0201 58.74 21.0201H49.14C47.72 21.0201 46.53 21.0601 45.56 21.1401C44.59 21.2201 43.79 21.3901 43.16 21.6501C42.53 21.9001 42.04 22.2701 41.7 22.7501C41.36 23.2301 41.11 23.8601 40.95 24.6401C40.79 25.4301 40.71 26.3901 40.68 27.5401C40.66 28.6901 40.65 30.0601 40.65 31.6501C40.65 33.2401 40.66 34.6101 40.69 35.7601C40.72 36.9101 40.81 37.8701 40.96 38.6601C41.11 39.4501 41.36 40.0801 41.7 40.5501C42.04 41.0301 42.52 41.3901 43.15 41.6501C43.78 41.9001 44.58 42.0701 45.55 42.1601C46.52 42.2401 47.71 42.2801 49.13 42.2801H58.73H58.74Z" fill="#DADADA"/>
<path d="M75.72 44.3999V18.8999H78.91V41.7399H99.1V44.3999H75.72Z" fill="#DADADA"/>
<path d="M165.72 44.9399H162.53V19.4399H168.12L191.5 41.7499V19.4399H194.69V44.9399H190.44L165.72 22.0999V44.9399Z" fill="#DADADA"/>
<path d="M203.19 44.94H200V41.75H203.19V44.94Z" fill="#DADADA"/>
<path d="M208.5 44.9399V19.4399H227.61C229.56 19.4399 231.2 19.5499 232.53 19.7799C233.86 20.0099 234.96 20.3499 235.83 20.8199C236.7 21.2799 237.37 21.8699 237.84 22.5599C238.31 23.2599 238.65 24.0799 238.87 25.0199C239.08 25.9699 239.21 27.0299 239.25 28.2299C239.29 29.4199 239.31 30.7399 239.31 32.1899C239.31 33.6399 239.29 34.9599 239.25 36.1499C239.21 37.3399 239.08 38.4099 238.87 39.3599C238.65 40.3099 238.31 41.1299 237.84 41.8199C237.37 42.5199 236.7 43.0999 235.83 43.5599C234.96 44.0199 233.86 44.3699 232.53 44.5999C231.2 44.8299 229.56 44.9399 227.61 44.9399H208.5ZM227.61 42.2799C229.02 42.2799 230.21 42.2399 231.18 42.1599C232.15 42.0799 232.96 41.9199 233.59 41.6899C234.22 41.4499 234.71 41.1099 235.05 40.6499C235.39 40.1899 235.64 39.5999 235.8 38.8499C235.96 38.0999 236.05 37.1799 236.08 36.0899C236.11 34.9999 236.12 33.6999 236.12 32.1799C236.12 30.6599 236.11 29.3599 236.08 28.2699C236.05 27.1799 235.96 26.2599 235.8 25.5099C235.64 24.7599 235.39 24.1599 235.05 23.7099C234.71 23.2599 234.22 22.9099 233.59 22.6699C232.96 22.4299 232.16 22.2699 231.19 22.1999C230.22 22.1199 229.03 22.0799 227.61 22.0799H211.69V42.2699H227.61V42.2799Z" fill="#DADADA"/>
</svg>
